<svg viewBox="0 0 513 512" fill="none" xmlns="http://www.w3.org/2000/svg">
<g clip-path="url(#clip0_116_9)">
<path d="M271.5 30H241.5C216.686 30 196.5 50.186 196.5 75H148.838C140.453 49.193 111.341 30 76.5 30C35.147 30 0.5 56.909 0.5 90C0.5 123.091 35.147 150 76.5 150C111.341 150 140.453 130.807 148.838 105H196.5V128.502C215.935 123.033 236.111 120 256.5 120C276.892 120 297.073 123.021 316.5 128.491V75C316.5 50.186 296.314 30 271.5 30Z" fill="#FD774D"/>
<path d="M309 271C281.153 271 271.324 303.725 270.929 305.116C269.069 311.517 263.18 315.97 256.515 315.97C256.515 315.97 256.456 315.97 256.442 315.97C249.762 315.926 243.903 311.532 242.072 305.116C241.676 303.725 231.847 271 204 271C182.628 271 166.5 288.783 166.5 312.367C166.5 341.107 193.731 363.856 238.863 401.517C244.517 406.234 250.406 411.156 256.5 416.312C262.594 411.156 268.482 406.234 274.137 401.517C319.269 363.856 346.5 341.107 346.5 312.367C346.5 288.783 330.372 271 309 271Z" fill="#FD774D"/>
<path d="M430.508 257.011C399.146 193.612 329.215 150 256.5 150C183.609 150 113.443 193.832 81.9049 257.582C61.8659 298.085 40.9189 383.65 125.821 494.847C134.024 505.584 147.311 512 161.358 512H351.641C365.689 512 378.976 505.584 387.193 494.832C471.92 383.855 450.694 297.821 430.508 257.011ZM293.37 424.545C284.845 431.664 275.777 439.223 266.256 447.382C263.458 449.799 259.972 451 256.5 451C253.028 451 249.542 449.799 246.744 447.382C237.223 439.223 228.155 431.664 219.63 424.545C169.576 382.753 136.5 355.155 136.5 312.367C136.5 272.347 166.148 241 204 241C229.562 241 246.202 254.638 256.5 268.466C266.798 254.638 283.438 241 309 241C346.852 241 376.5 272.348 376.5 312.367C376.5 355.155 343.424 382.753 293.37 424.545Z" fill="#FD774D"/>
<path d="M497.5 75H436.5C428.209 75 421.5 81.709 421.5 90C421.5 98.291 428.209 105 436.5 105H497.5C505.791 105 512.5 98.291 512.5 90C512.5 81.709 505.791 75 497.5 75Z" fill="#FD774D"/>
<path d="M432.105 4.39376C426.246 -1.46524 416.753 -1.46524 410.894 4.39376L380.894 34.3938C375.035 40.2528 375.035 49.7458 380.894 55.6048C386.753 61.4638 396.246 61.4648 402.105 55.6048L432.105 25.6048C437.964 19.7458 437.964 10.2528 432.105 4.39376Z" fill="#FD774D"/>
<path d="M432.106 154.394L402.106 124.394C396.247 118.535 386.754 118.535 380.895 124.394C375.036 130.253 375.036 139.746 380.895 145.605L410.895 175.605C416.754 181.464 426.247 181.464 432.106 175.605C437.965 169.746 437.965 160.253 432.106 154.394Z" fill="#FD774D"/>
</g>
<defs>
<clipPath id="clip0_116_9">
<rect width="512" height="512" fill="white" transform="translate(0.5)"/>
</clipPath>
</defs>
</svg>
