<?xml version="1.0" encoding="UTF-8" standalone="no"?>
<!DOCTYPE svg PUBLIC "-//W3C//DTD SVG 1.1//EN"
 "http://www.w3.org/Graphics/SVG/1.1/DTD/svg11.dtd">
<!-- Generated by graphviz version 2.47.0 (20210316.0004)
 -->
<!-- Title: dependencies Pages: 1 -->
<svg width="636pt" height="284pt"
 viewBox="0.00 0.00 636.00 284.00" xmlns="http://www.w3.org/2000/svg" xmlns:xlink="http://www.w3.org/1999/xlink">
<g id="graph0" class="graph" transform="scale(1 1) rotate(0) translate(4 280)">
<title>dependencies</title>
<polygon fill="white" stroke="transparent" points="-4,4 -4,-280 632,-280 632,4 -4,4"/>
<text text-anchor="start" x="293.01" y="-42.4" font-family="Times-12" font-weight="bold" font-size="14.00">Legend</text>
<polygon fill="#ffffb3" stroke="transparent" points="80,-10 80,-30 100,-30 100,-10 80,-10"/>
<text text-anchor="start" x="103.63" y="-15.4" font-family="Times-12" font-size="14.00"> &#160;Declarations</text>
<polygon fill="#8dd3c7" stroke="transparent" points="193,-10 193,-30 213,-30 213,-10 193,-10"/>
<text text-anchor="start" x="216.73" y="-15.4" font-family="Times-12" font-size="14.00"> &#160;Module</text>
<polygon fill="#80b1d3" stroke="transparent" points="279,-10 279,-30 299,-30 299,-10 279,-10"/>
<text text-anchor="start" x="302.78" y="-15.4" font-family="Times-12" font-size="14.00"> &#160;Bootstrap</text>
<polygon fill="#fdb462" stroke="transparent" points="376,-10 376,-30 396,-30 396,-10 376,-10"/>
<text text-anchor="start" x="399.67" y="-15.4" font-family="Times-12" font-size="14.00"> &#160;Providers</text>
<polygon fill="#fb8072" stroke="transparent" points="472,-10 472,-30 492,-30 492,-10 472,-10"/>
<text text-anchor="start" x="495.73" y="-15.4" font-family="Times-12" font-size="14.00"> &#160;Exports</text>
<g id="clust1" class="cluster">
<title>cluster_AppModule</title>
<polygon fill="none" stroke="black" stroke-dasharray="1,5" points="8,-70 8,-268 620,-268 620,-70 8,-70"/>
</g>
<g id="clust6" class="cluster">
<title>cluster_AppModule_imports</title>
<polygon fill="none" stroke="black" points="468,-78 468,-130 612,-130 612,-78 468,-78"/>
</g>
<g id="clust2" class="cluster">
<title>cluster_AppModule_declarations</title>
<polygon fill="none" stroke="black" points="16,-78 16,-130 460,-130 460,-78 16,-78"/>
</g>
<g id="clust8" class="cluster">
<title>cluster_AppModule_bootstrap</title>
<polygon fill="none" stroke="black" points="266,-208 266,-260 390,-260 390,-208 266,-208"/>
</g>
<!-- AppComponent -->
<g id="node1" class="node">
<title>AppComponent</title>
<polygon fill="#ffffb3" stroke="black" points="451.94,-122 346.06,-122 346.06,-86 451.94,-86 451.94,-122"/>
<text text-anchor="middle" x="399" y="-99.8" font-family="Times,serif" font-size="14.00">AppComponent</text>
</g>
<!-- AppModule -->
<g id="node4" class="node">
<title>AppModule</title>
<polygon fill="#8dd3c7" stroke="black" points="369.66,-187 366.66,-191 345.66,-191 342.66,-187 286.34,-187 286.34,-151 369.66,-151 369.66,-187"/>
<text text-anchor="middle" x="328" y="-164.8" font-family="Times,serif" font-size="14.00">AppModule</text>
</g>
<!-- AppComponent&#45;&gt;AppModule -->
<g id="edge1" class="edge">
<title>AppComponent&#45;&gt;AppModule</title>
<path fill="none" stroke="black" d="M358.05,-122.11C358.05,-122.11 358.05,-140.99 358.05,-140.99"/>
<polygon fill="black" stroke="black" points="354.55,-140.99 358.05,-150.99 361.55,-140.99 354.55,-140.99"/>
</g>
<!-- CompTestComponent -->
<g id="node2" class="node">
<title>CompTestComponent</title>
<polygon fill="#ffffb3" stroke="black" points="327.66,-122 188.34,-122 188.34,-86 327.66,-86 327.66,-122"/>
<text text-anchor="middle" x="258" y="-99.8" font-family="Times,serif" font-size="14.00">CompTestComponent</text>
</g>
<!-- CompTestComponent&#45;&gt;AppModule -->
<g id="edge2" class="edge">
<title>CompTestComponent&#45;&gt;AppModule</title>
<path fill="none" stroke="black" d="M307,-122.11C307,-122.11 307,-140.99 307,-140.99"/>
<polygon fill="black" stroke="black" points="303.5,-140.99 307,-150.99 310.5,-140.99 303.5,-140.99"/>
</g>
<!-- MyCounterComponent -->
<g id="node3" class="node">
<title>MyCounterComponent</title>
<polygon fill="#ffffb3" stroke="black" points="169.88,-122 24.12,-122 24.12,-86 169.88,-86 169.88,-122"/>
<text text-anchor="middle" x="97" y="-99.8" font-family="Times,serif" font-size="14.00">MyCounterComponent</text>
</g>
<!-- MyCounterComponent&#45;&gt;AppModule -->
<g id="edge3" class="edge">
<title>MyCounterComponent&#45;&gt;AppModule</title>
<path fill="none" stroke="black" d="M97,-122.11C97,-141.34 97,-169 97,-169 97,-169 276.17,-169 276.17,-169"/>
<polygon fill="black" stroke="black" points="276.17,-172.5 286.17,-169 276.17,-165.5 276.17,-172.5"/>
</g>
<!-- AppComponent  -->
<g id="node6" class="node">
<title>AppComponent </title>
<polygon fill="#80b1d3" stroke="black" points="382.44,-252 273.56,-252 273.56,-216 382.44,-216 382.44,-252"/>
<text text-anchor="middle" x="328" y="-229.8" font-family="Times,serif" font-size="14.00">AppComponent </text>
</g>
<!-- AppModule&#45;&gt;AppComponent  -->
<g id="edge5" class="edge">
<title>AppModule&#45;&gt;AppComponent </title>
<path fill="none" stroke="black" stroke-dasharray="1,5" d="M328,-187.11C328,-187.11 328,-205.99 328,-205.99"/>
<polygon fill="black" stroke="black" points="324.5,-205.99 328,-215.99 331.5,-205.99 324.5,-205.99"/>
</g>
<!-- AppRoutingModule -->
<g id="node5" class="node">
<title>AppRoutingModule</title>
<polygon fill="#8dd3c7" stroke="black" points="604.27,-122 601.27,-126 580.27,-126 577.27,-122 475.73,-122 475.73,-86 604.27,-86 604.27,-122"/>
<text text-anchor="middle" x="540" y="-99.8" font-family="Times,serif" font-size="14.00">AppRoutingModule</text>
</g>
<!-- AppRoutingModule&#45;&gt;AppModule -->
<g id="edge4" class="edge">
<title>AppRoutingModule&#45;&gt;AppModule</title>
<path fill="none" stroke="black" d="M540,-122.11C540,-141.34 540,-169 540,-169 540,-169 379.88,-169 379.88,-169"/>
<polygon fill="black" stroke="black" points="379.88,-165.5 369.88,-169 379.88,-172.5 379.88,-165.5"/>
</g>
</g>
</svg>
